<svg width="123" height="96" viewBox="0 0 123 96" fill="none" xmlns="http://www.w3.org/2000/svg">
<path d="M0.440511 25.5551C0.339501 22.0871 0.605419 18.9874 0.0666719 15.9115C-0.0810428 15.0682 0.029987 14.0749 0.269078 13.2469C0.770734 11.5096 0.739456 8.64559 2.75992 8.85851C5.09659 9.10482 4.09567 11.9493 4.13278 13.6505C4.26225 19.5834 4.15071 25.5229 4.19284 31.4593C4.21349 34.3682 3.69415 37.6981 6.79604 39.0821C10.4013 40.6907 15.3692 39.0042 17.3761 35.7596C18.0094 34.7357 18.1781 33.3266 19.2831 32.6395C20.8231 32.9559 20.7117 34.3732 20.6319 35.6206C20.4513 38.4452 20.6638 41.4778 19.8348 44.0396C17.3934 51.5835 20.3998 57.2484 24.1954 62.9115C23.6245 57.9932 23.6783 53.1212 24.395 48.2672C24.8464 45.2099 25.3592 42.1787 26.5674 39.3874C28.4886 34.9488 31.3255 33.6735 35.3816 35.2365C38.836 36.5677 41.9647 39.0434 45.7246 39.2869C47.0504 39.3727 48.3855 39.2543 49.7124 39.3271C51.7246 39.4374 52.5113 38.3601 52.3849 36.0607C52.0244 29.5071 51.8536 22.935 51.3333 16.3997C51.136 13.9213 51.4884 11.7345 52.4989 9.733C53.3975 7.95326 54.7094 7.87452 55.4137 9.96669C56.4205 12.9577 57.2401 16.0387 58.0365 19.1174C58.2125 19.798 58.2062 21.0539 57.8625 21.327C53.8663 24.5012 55.8574 29.2588 55.4125 33.3501C55.3163 34.2348 55.3984 35.1457 55.3984 36.3151C58.5596 33.1901 61.1083 29.4448 64.5726 26.9208C66.7436 25.3391 68.9266 23.8255 71.3901 22.9573C78.5865 20.4214 83.3762 24.8567 83.4032 34.1005C83.4077 35.6291 83.2647 37.1582 83.1948 38.5868C84.3704 39.8109 85.6292 39.2647 86.8124 39.3402C89.1307 39.4879 89.9818 38.2982 89.7125 35.6039C89.2229 30.7067 91.0163 26.7844 94.0497 23.6129C96.3047 21.2551 98.5042 21.4476 100.379 24.1988C102.659 27.5451 104.085 31.3902 103.128 35.708C102.464 38.7036 103.445 39.4604 105.697 39.3922C108.136 39.3184 110.575 39.2696 113.014 39.2367C115.544 39.2027 116.396 37.7288 116.429 34.8232C116.502 28.3541 115.627 21.9655 115.492 15.522C115.476 14.7545 115.232 13.9039 115.439 13.237C116.003 11.4226 115.788 8.59009 118.159 8.59617C120.306 8.60168 119.824 11.173 120.264 12.7852C120.7 14.3799 121.204 15.9494 121.679 17.5299C122.13 19.0319 122.622 21.0016 121.451 21.8548C119.029 23.6202 119.391 26.1562 119.417 28.6695C119.492 36.0336 119.404 43.3407 117.468 50.4922C115.341 58.3524 109.164 61.4477 102.613 57.7828C100.173 56.4181 98.463 53.96 96.3092 52.3218C94.856 52.5985 94.2178 53.9431 93.3061 54.8294C90.4839 57.573 87.328 59.1235 83.5819 59.1086C71.1574 59.0594 58.7327 59.1114 46.3082 59.0826C41.13 59.0706 36.2651 57.3257 31.4671 55.2545C27.6265 53.5967 26.3735 54.8426 27.0225 59.6497C27.5721 63.7205 28.1913 67.7666 29.3995 71.6719C29.8509 73.131 30.1282 74.8606 28.5536 75.7399C27.0252 76.5935 26.3754 74.9505 25.6498 73.919C21.9159 68.6113 19.0289 62.6832 16.5915 56.5777C16.1984 56.5304 15.9094 56.3863 15.7828 56.496C8.65547 62.6674 4.14819 57.2084 2.6742 50.477C0.911559 42.4275 0.517254 34.1989 0.440511 25.5551ZM60.0139 39.222C65.7436 38.653 71.5137 38.3685 77.0725 36.4511C78.6197 35.9174 80.8127 35.3937 80.71 33.1524C80.5903 30.5408 78.4156 29.5308 76.4068 29.0652C75.4797 28.8504 74.4288 29.1256 73.4697 29.3692C68.0696 30.7403 63.3233 33.7534 58.8456 37.4073C58.4229 37.7522 57.8537 38.1016 58.2824 39.0267C58.6671 39.0858 59.0982 39.1521 60.0139 39.222ZM96.8501 28.8744C95.4471 28.96 94.3377 29.7262 93.369 30.8587C91.9454 32.5227 91.5677 34.005 93.617 35.4932C95.6912 36.9995 99.8318 36.2189 100.513 33.6932C101.285 30.8336 99.1983 29.7929 96.8501 28.8744Z" fill="url(#paint0_linear_1_40295)"/>
<path d="M89.5243 13.4797C90.7498 11.9564 92.0415 11.298 93.5682 11.6802C95.6562 12.203 97.7137 12.0468 99.8201 11.804C102.429 11.5032 104.084 13.4187 104.071 16.3457C104.059 19.2091 102.337 20.9926 99.677 20.6175C97.6927 20.3377 95.7469 20.1317 93.7463 20.4451C89.572 21.099 87.9823 18.6102 89.5243 13.4797Z" fill="url(#paint1_linear_1_40295)"/>
<path d="M46.8053 88.3773C46.0255 82.8062 47.0301 79.7685 49.9085 78.7521C52.1558 77.9585 54.3996 78.0696 55.9381 80.4187C57.7531 83.19 58.0667 86.3151 56.5669 89.4443C56.1015 90.4155 55.3175 91.18 54.6266 92.1102C55.4746 92.643 57.2881 92.1765 56.5804 94.2046C55.921 96.0947 54.0324 95.986 53.1887 95.1671C51.0479 93.0892 48.2402 91.8135 46.8053 88.3773ZM53.9512 82.7729C53.1229 81.4164 52.1413 80.281 50.6646 81.463C49.0136 82.7845 48.6286 84.6309 49.3174 86.8753C49.8728 88.6853 50.7938 89.8672 52.4848 89.4496C54.4359 88.9678 54.5091 87.0091 54.499 85.1621C54.4956 84.5321 54.3082 83.9035 53.9512 82.7729Z" fill="url(#paint2_linear_1_40295)"/>
<path d="M90.0337 86.6591C90.0375 87.4105 90.0914 87.8079 90.0344 88.1824C89.828 89.5389 90.7885 91.743 88.7558 91.8699C87.0895 91.9739 87.2865 89.9701 87.1845 88.6203C87.072 87.1304 86.6393 86.1609 85.1776 86.2176C83.616 86.2783 83.4475 87.444 83.4955 88.8727C83.5285 89.8558 84.0174 90.922 83.1806 91.7793C82.6067 92.0832 82.0531 91.9454 81.6661 91.445C80.9587 90.53 80.6409 80.1512 81.339 79.3458C82.229 78.319 83.2241 78.3429 83.6442 79.8415C83.899 80.7501 83.6912 81.8341 83.6912 82.9183C85.6972 83.8628 87.0291 83.6953 87.1721 80.8201C87.2304 79.6504 87.6357 78.781 88.7959 78.9353C89.9918 79.0943 90.0327 80.2274 90.05 81.2652C90.0778 82.9409 90.0419 84.6181 90.0337 86.6591Z" fill="url(#paint3_linear_1_40295)"/>
<path d="M99.8884 66.0799C96.7724 66.6031 93.9445 67.1618 91.1002 67.5636C89.8812 67.7358 88.589 67.6967 88.4337 65.6398C88.2941 63.7897 88.8718 62.7388 90.5517 62.4823C93.5016 62.0322 96.429 61.3726 99.3832 60.9758C100.584 60.8145 102.25 60.217 102.455 62.6367C102.615 64.5256 102.084 65.9586 99.8884 66.0799Z" fill="url(#paint4_linear_1_40295)"/>
<path d="M36.1608 81.8891C37.1596 85.3659 38.6012 88.3873 38.871 91.737C36.9894 92.6425 36.5879 91.2497 36.0045 90.2101C34.5565 87.6298 33.1245 87.7865 31.7732 90.2953C31.2654 91.2381 30.9609 92.7994 29.6941 91.8742C28.6467 91.1091 29.2988 89.7992 29.6512 88.7339C30.4418 86.3432 31.2141 83.9436 32.0464 81.5726C32.444 80.44 32.5791 78.8945 34.0601 78.9431C35.465 78.9892 35.6835 80.4289 36.1608 81.8891Z" fill="url(#paint5_linear_1_40295)"/>
<path d="M98.2727 91.7381C98.4205 87.3658 100.294 83.8435 101.634 80.1134C102.298 78.2654 103.75 78.3359 104.357 79.946C105.783 83.7319 106.854 87.6991 108.041 91.5052C106.426 92.5933 105.792 91.8128 105.145 90.8194C103.074 87.6383 102.395 87.6344 100.506 90.7702C99.9874 91.632 99.5812 92.6071 98.2727 91.7381Z" fill="url(#paint6_linear_1_40295)"/>
<path d="M92.6512 10.5863C89.7043 9.3187 88.9459 6.92476 89.2546 3.7941C90.9795 3.2495 91.1571 6.10004 92.8974 5.53901C94.2278 4.92819 93.2074 3.00019 94.05 1.89584C95.4357 1.75754 95.3755 4.27539 96.9114 4.01397C98.3565 3.17961 97.0347 1.05588 98.1362 3.8147e-06C100.695 3.74205 99.8703 7.46242 96.1416 8.83301C94.9775 9.26092 94.2367 10.6689 92.6512 10.5863Z" fill="url(#paint7_linear_1_40295)"/>
<path d="M63.2511 14.7551C61.0416 12.701 60.2324 7.14271 61.6424 4.98829C62.8008 3.21843 64.3067 3.07362 65.6322 4.60691C67.9992 7.34473 66.76 13.0804 63.2511 14.7551Z" fill="url(#paint8_linear_1_40295)"/>
<path d="M69.2668 91.9016C67.7994 91.3869 67.8018 90.204 67.7151 89.0249C67.4697 85.6829 69.0272 81.6449 64.4634 79.798C67.7482 78.3882 70.3884 78.4226 73.9735 79.5698C70.1675 81.5809 70.6865 84.7928 70.5782 87.8102C70.527 89.2371 71.1637 91.0008 69.2668 91.9016Z" fill="url(#paint9_linear_1_40295)"/>
<path d="M15.1547 83.0519C15.1505 81.9267 15.1317 81.1543 15.1498 80.3832C15.1694 79.5489 15.4017 78.811 16.2233 78.7435C17.1178 78.6699 17.7392 79.2633 17.8715 80.2586C18.0052 81.2648 17.9371 82.3065 17.9668 83.3323C18.06 86.5601 17.0339 90.6159 22.2438 89.8365C20.7736 93.3653 18.5994 92.2916 16.8469 92.0666C15.1286 91.8461 15.1636 89.9978 15.1564 88.4246C15.1487 86.7516 15.1557 85.0784 15.1547 83.0519Z" fill="url(#paint10_linear_1_40295)"/>
<defs>
<linearGradient id="paint0_linear_1_40295" x1="121.944" y1="19.5156" x2="0.509025" y2="68.0738" gradientUnits="userSpaceOnUse">
<stop stop-color="#F795E5" stop-opacity="0.8"/>
<stop offset="1" stop-color="#9E78FF" stop-opacity="0.8"/>
</linearGradient>
<linearGradient id="paint1_linear_1_40295" x1="104.042" y1="13.0698" x2="88.6843" y2="18.7199" gradientUnits="userSpaceOnUse">
<stop stop-color="#F795E5" stop-opacity="0.8"/>
<stop offset="1" stop-color="#9E78FF" stop-opacity="0.8"/>
</linearGradient>
<linearGradient id="paint2_linear_1_40295" x1="57.4996" y1="81.1742" x2="45.0937" y2="82.9023" gradientUnits="userSpaceOnUse">
<stop stop-color="#F795E5" stop-opacity="0.8"/>
<stop offset="1" stop-color="#9E78FF" stop-opacity="0.8"/>
</linearGradient>
<linearGradient id="paint3_linear_1_40295" x1="90.0681" y1="80.8252" x2="79.7722" y2="82.3893" gradientUnits="userSpaceOnUse">
<stop stop-color="#F795E5" stop-opacity="0.8"/>
<stop offset="1" stop-color="#9E78FF" stop-opacity="0.8"/>
</linearGradient>
<linearGradient id="paint4_linear_1_40295" x1="102.454" y1="61.9169" x2="89.0205" y2="68.0323" gradientUnits="userSpaceOnUse">
<stop stop-color="#F795E5" stop-opacity="0.8"/>
<stop offset="1" stop-color="#9E78FF" stop-opacity="0.8"/>
</linearGradient>
<linearGradient id="paint5_linear_1_40295" x1="38.8524" y1="81.1162" x2="27.9079" y2="82.9014" gradientUnits="userSpaceOnUse">
<stop stop-color="#F795E5" stop-opacity="0.8"/>
<stop offset="1" stop-color="#9E78FF" stop-opacity="0.8"/>
</linearGradient>
<linearGradient id="paint6_linear_1_40295" x1="108.023" y1="80.9281" x2="97.0486" y2="82.7049" gradientUnits="userSpaceOnUse">
<stop stop-color="#F795E5" stop-opacity="0.8"/>
<stop offset="1" stop-color="#9E78FF" stop-opacity="0.8"/>
</linearGradient>
<linearGradient id="paint7_linear_1_40295" x1="99.5948" y1="1.74224" x2="88.1213" y2="4.24026" gradientUnits="userSpaceOnUse">
<stop stop-color="#F795E5" stop-opacity="0.8"/>
<stop offset="1" stop-color="#9E78FF" stop-opacity="0.8"/>
</linearGradient>
<linearGradient id="paint8_linear_1_40295" x1="66.8383" y1="5.39435" x2="60.1187" y2="6.17806" gradientUnits="userSpaceOnUse">
<stop stop-color="#F795E5" stop-opacity="0.8"/>
<stop offset="1" stop-color="#9E78FF" stop-opacity="0.8"/>
</linearGradient>
<linearGradient id="paint9_linear_1_40295" x1="73.9554" y1="80.8917" x2="63.264" y2="82.5983" gradientUnits="userSpaceOnUse">
<stop stop-color="#F795E5" stop-opacity="0.8"/>
<stop offset="1" stop-color="#9E78FF" stop-opacity="0.8"/>
</linearGradient>
<linearGradient id="paint10_linear_1_40295" x1="22.2302" y1="80.9844" x2="14.1499" y2="81.9137" gradientUnits="userSpaceOnUse">
<stop stop-color="#F795E5" stop-opacity="0.8"/>
<stop offset="1" stop-color="#9E78FF" stop-opacity="0.8"/>
</linearGradient>
</defs>
</svg>
