<svg width="368" height="346" viewBox="0 0 368 346" fill="none" xmlns="http://www.w3.org/2000/svg">
<circle cx="201.868" cy="180.947" r="109.969" fill="#F901C9"/>
<path d="M143.129 178.549C143.04 178.46 142.923 178.399 142.796 178.386C142.669 178.373 142.544 178.408 142.445 178.484C142.347 178.561 142.282 178.674 142.263 178.801C142.245 178.927 142.275 179.055 142.34 179.163C143.904 181.764 145.49 184.347 147.098 186.914C155.918 200.994 165.392 214.566 175.52 227.629C176.517 228.944 178.259 229.716 179.898 229.58C181.18 229.5 182.468 228.868 183.314 227.915C208.191 200.363 232.318 172.133 255.695 143.225C257.593 140.878 259.485 138.528 261.373 136.172C261.453 136.072 261.496 135.944 261.488 135.814C261.48 135.684 261.423 135.563 261.327 135.477C261.232 135.391 261.105 135.346 260.975 135.351C260.845 135.356 260.723 135.412 260.631 135.502C258.478 137.618 256.331 139.738 254.188 141.863C227.79 168.041 202.141 194.896 177.243 222.43C177.749 221.858 178.546 221.466 179.318 221.419C180.304 221.334 181.376 221.812 181.975 222.604C171.795 209.582 160.962 197.068 149.475 185.063C147.382 182.875 145.266 180.703 143.129 178.549Z" fill="white"/>
<circle cx="10.1775" cy="159.951" r="9.84941" fill="#F901C9"/>
<circle cx="63.2134" cy="56.2975" r="14.6802" fill="#F901C9"/>
<circle cx="332.652" cy="327.054" r="18.1254" fill="#F901C9"/>
<circle cx="360.658" cy="174.095" r="6.47198" fill="#F901C9"/>
<circle cx="297.802" cy="8.0283" r="7.82774" fill="#F901C9"/>
<circle cx="86.3432" cy="290.917" r="13.3822" fill="#F901C9"/>
<circle cx="237.317" cy="328.408" r="5.77463" fill="#F901C9"/>
</svg>
