<svg width="31" height="30" viewBox="0 0 31 30" fill="none" xmlns="http://www.w3.org/2000/svg">
<path d="M15.5 25L8.25 25C6.36438 25 5.42157 25 4.83579 24.4142C4.25 23.8284 4.25 22.8856 4.25 21L4.25 8.125C4.25 8.00894 4.25 7.95091 4.25161 7.90184C4.30332 6.322 5.572 5.05332 7.15184 5.00161C7.20091 5 7.25894 5 7.375 5M7.375 5L22.75 5C24.6356 5 25.5784 5 26.1642 5.58579C26.75 6.17157 26.75 7.11438 26.75 9L26.75 21C26.75 22.8856 26.75 23.8284 26.1642 24.4142C25.5784 25 24.6356 25 22.75 25L14.5 25C12.6144 25 11.6716 25 11.0858 24.4142C10.5 23.8284 10.5 22.8856 10.5 21L10.5 8.125C10.5 8.00894 10.5 7.95091 10.4984 7.90184C10.4467 6.322 9.178 5.05332 7.59816 5.00161C7.54909 5 7.49106 5 7.375 5Z" stroke="#83868F" stroke-width="2"/>
<path d="M20.5 11.25L20.5 18.75" stroke="#83868F" stroke-width="2" stroke-linecap="round"/>
</svg>
