<svg width="31" height="31" viewBox="0 0 31 31" fill="none" xmlns="http://www.w3.org/2000/svg">
<path d="M5.50122 15.1816C5.50122 14.253 5.50122 13.7887 5.53547 13.3972C5.91613 9.04622 9.3658 5.59655 13.7168 5.21589C14.1083 5.18164 14.5726 5.18164 15.5012 5.18164V5.18164C16.4298 5.18164 16.8942 5.18164 17.2856 5.21589C21.6366 5.59655 25.0863 9.04622 25.467 13.3972C25.5012 13.7887 25.5012 14.253 25.5012 15.1816V21.5453C25.5012 23.08 25.5012 23.8473 25.1023 24.3802C24.988 24.5329 24.8525 24.6684 24.6998 24.7827C24.1669 25.1816 23.3995 25.1816 21.8649 25.1816H15.5012C14.5726 25.1816 14.1083 25.1816 13.7168 25.1474C9.3658 24.7667 5.91613 21.3171 5.53547 16.966C5.50122 16.5746 5.50122 16.1103 5.50122 15.1816V15.1816Z" stroke="#83868F" stroke-width="2"/>
<path d="M11.7512 13.9316L19.2512 13.9316" stroke="#83868F" stroke-width="2" stroke-linecap="round" stroke-linejoin="round"/>
<path d="M15.5012 18.9316H19.2512" stroke="#83868F" stroke-width="2" stroke-linecap="round" stroke-linejoin="round"/>
</svg>
