<svg width="31" height="31" viewBox="0 0 31 31" fill="none" xmlns="http://www.w3.org/2000/svg">
<path d="M14.7131 4.93359C15.2162 4.71798 15.7862 4.71798 16.2893 4.93359L23.9534 8.21777C24.7726 8.56887 25.2612 9.42026 25.1506 10.3047L24.2874 17.208C24.0672 18.9692 23.186 20.5815 21.8225 21.7178L16.7815 25.918C16.0398 26.536 14.9626 26.536 14.2209 25.918L9.17993 21.7178C7.8164 20.5815 6.93524 18.9692 6.71509 17.208L5.85181 10.3047C5.74125 9.42027 6.22984 8.56887 7.04907 8.21777L14.7131 4.93359Z" stroke="#83868F" stroke-width="2" stroke-linecap="round"/>
<path d="M11.7512 15.6836L15.07 19.0023C15.2931 19.2254 15.6645 19.1887 15.8395 18.9261L20.5012 11.9336" stroke="#83868F" stroke-width="2" stroke-linecap="round"/>
</svg>
