<svg width="31" height="30" viewBox="0 0 31 30" fill="none" xmlns="http://www.w3.org/2000/svg">
<path d="M24.25 17.7504L25.25 17.7509V17.7504H24.25ZM24.2402 17.8822L23.2488 17.7515C23.245 17.7804 23.2425 17.8094 23.2412 17.8385L24.2402 17.8822ZM23.584 20.849L24.5078 21.2317L24.5079 21.2317L23.584 20.849ZM21.6875 23.6879L22.3946 24.395L22.3946 24.395L21.6875 23.6879ZM18.8486 25.5844L19.2313 26.5082L19.2313 26.5082L18.8486 25.5844ZM15.5 26.2504L15.5 27.2504L15.5 27.2504L15.5 26.2504ZM12.1514 25.5844L11.7687 26.5082L11.7687 26.5082L12.1514 25.5844ZM9.3125 23.6879L8.60539 24.395L8.60542 24.395L9.3125 23.6879ZM7.41602 20.849L6.49214 21.2317L6.49216 21.2317L7.41602 20.849ZM6.75 17.5004L5.75 17.5004L5.75 17.5004L6.75 17.5004ZM19.787 7.57097L20.424 8.34179L19.787 7.57097ZM19.9612 7.56939L20.5977 6.79816L19.9612 7.56939ZM16.9141 10.7591L15.9654 11.0753L16.9141 10.7591ZM17.1979 10.7856L16.326 10.2959L17.1979 10.7856ZM12.9796 3.84691L12.2505 4.53132L12.9796 3.84691ZM12.787 3.83642L13.4491 4.58584L12.787 3.83642ZM12.9796 3.84691L12.2505 4.53132C12.6606 4.96818 14.6964 7.26746 15.9654 11.0753L16.9141 10.7591L17.8628 10.443C16.4719 6.26908 14.2377 3.72607 13.7087 3.1625L12.9796 3.84691ZM17.1979 10.7856L18.0698 11.2752C19.0411 9.54561 20.1544 8.56464 20.424 8.34179L19.787 7.57097L19.1499 6.80014C18.7558 7.12586 17.4534 8.28825 16.326 10.2959L17.1979 10.7856ZM19.9612 7.56939L19.3246 8.34062C19.8395 8.76565 23.25 11.7974 23.25 17.4271H24.25H25.25C25.25 10.9275 21.3099 7.38598 20.5977 6.79816L19.9612 7.56939ZM24.25 17.4271H23.25V17.7504H24.25H25.25V17.4271H24.25ZM24.25 17.7504L23.25 17.7498C23.25 17.7421 23.2503 17.738 23.2503 17.7385C23.2503 17.7391 23.2499 17.743 23.2488 17.7515L24.2402 17.8822L25.2317 18.0129C25.2406 17.945 25.2499 17.8542 25.25 17.7509L24.25 17.7504ZM24.2402 17.8822L23.2412 17.8385C23.2017 18.7417 23.0059 19.6314 22.6601 20.4663L23.584 20.849L24.5079 21.2317C24.9438 20.1792 25.1897 19.0598 25.2393 17.9259L24.2402 17.8822ZM23.584 20.849L22.6601 20.4663C22.2706 21.4066 21.6998 22.2614 20.9804 22.9808L21.6875 23.6879L22.3946 24.395C23.3 23.4896 24.018 22.4142 24.5078 21.2317L23.584 20.849ZM21.6875 23.6879L20.9804 22.9807C20.2609 23.7002 19.4062 24.271 18.4659 24.6605L18.8486 25.5844L19.2313 26.5082C20.4139 26.0184 21.4892 25.3003 22.3946 24.395L21.6875 23.6879ZM18.8486 25.5844L18.466 24.6605C17.5258 25.0499 16.5177 25.2504 15.5 25.2504L15.5 26.2504L15.5 27.2504C16.7803 27.2504 18.0484 26.9982 19.2313 26.5082L18.8486 25.5844ZM15.5 26.2504L15.5 25.2504C14.4823 25.2504 13.4743 25.0499 12.534 24.6605L12.1514 25.5844L11.7687 26.5082C12.9516 26.9982 14.2197 27.2504 15.5 27.2504L15.5 26.2504ZM12.1514 25.5844L12.5341 24.6605C11.5938 24.271 10.7391 23.7002 10.0196 22.9807L9.3125 23.6879L8.60542 24.395C9.51083 25.3003 10.5861 26.0184 11.7687 26.5082L12.1514 25.5844ZM9.3125 23.6879L10.0196 22.9808C9.30024 22.2614 8.72944 21.4066 8.33987 20.4663L7.41602 20.849L6.49216 21.2317C6.98204 22.4142 7.69998 23.4896 8.60539 24.395L9.3125 23.6879ZM7.41602 20.849L8.3399 20.4663C7.9505 19.5262 7.75005 18.518 7.75 17.5003L6.75 17.5004L5.75 17.5004C5.75006 18.7806 6.00218 20.0488 6.49214 21.2317L7.41602 20.849ZM6.75 17.5004H7.75C7.75 9.91355 12.7203 5.22976 13.4491 4.58584L12.787 3.83642L12.1249 3.087C11.2682 3.84392 5.75 9.03325 5.75 17.5004H6.75ZM19.787 7.57097L20.424 8.34179C20.1231 8.59051 19.6588 8.61651 19.3246 8.34062L19.9612 7.56939L20.5977 6.79816C20.1596 6.43654 19.5547 6.46561 19.1499 6.80014L19.787 7.57097ZM16.9141 10.7591L15.9654 11.0753C16.2848 12.0338 17.5839 12.1405 18.0698 11.2752L17.1979 10.7856L16.326 10.2959C16.6812 9.66328 17.6277 9.73758 17.8628 10.443L16.9141 10.7591ZM12.9796 3.84691L13.7087 3.1625C13.2997 2.72682 12.6029 2.66471 12.1249 3.087L12.787 3.83642L13.4491 4.58584C13.0869 4.90582 12.5537 4.85433 12.2505 4.53132L12.9796 3.84691Z" fill="#83868F"/>
<path d="M14.9561 14.156L14.3376 13.3702L14.3375 13.3703L14.9561 14.156ZM16.0439 14.156L16.6625 13.3703L16.6623 13.3701L16.0439 14.156ZM20.4375 20.4607L19.4489 20.6115L19.4498 20.6173L20.4375 20.4607ZM20.4482 20.5339L21.4388 20.3965L21.4381 20.392L20.4482 20.5339ZM20.4629 20.6335L21.4558 20.5146L21.4558 20.5145L20.4629 20.6335ZM20.4629 20.6521L19.4676 20.7486C19.4683 20.7559 19.4691 20.7632 19.4699 20.7705L20.4629 20.6521ZM20.5 21.2498L21.5 21.2498L21.5 21.2497L20.5 21.2498ZM15.5 26.2498L15.5 27.2498L15.5 27.2498L15.5 26.2498ZM10.5 21.2498L9.5 21.2497V21.2498H10.5ZM10.5361 20.6521L11.5291 20.7704C11.53 20.7631 11.5308 20.7558 11.5315 20.7485L10.5361 20.6521ZM10.5371 20.6335L9.54422 20.5145L9.5442 20.5146L10.5371 20.6335ZM10.5508 20.5339L9.5609 20.392L9.56027 20.3965L10.5508 20.5339ZM10.5615 20.4607L11.5492 20.6173L11.5501 20.6115L10.5615 20.4607ZM14.9561 14.156L15.5745 14.9418C15.5593 14.9538 15.5326 14.9653 15.5 14.9653C15.4674 14.9653 15.4407 14.9538 15.4256 14.9419L16.0439 14.156L16.6623 13.3701C15.9765 12.8305 15.0236 12.8303 14.3376 13.3702L14.9561 14.156ZM16.0439 14.156L15.4254 14.9417C15.9874 15.3842 16.914 16.1814 17.7455 17.1997C18.5856 18.2285 19.265 19.4057 19.4489 20.6115L20.4375 20.4607L21.4261 20.3099C21.1656 18.6028 20.2429 17.0959 19.2946 15.9347C18.3378 14.7629 17.2898 13.8641 16.6625 13.3703L16.0439 14.156ZM20.4375 20.4607L19.4498 20.6173C19.4522 20.632 19.4538 20.6444 19.4584 20.6759L20.4482 20.5339L21.4381 20.392C21.4356 20.3746 21.4306 20.3381 21.4252 20.3041L20.4375 20.4607ZM20.4482 20.5339L19.4577 20.6714C19.4598 20.6866 19.4619 20.7002 19.4636 20.711C19.465 20.7202 19.467 20.7329 19.4677 20.7378C19.4701 20.7529 19.4703 20.7547 19.47 20.7526L20.4629 20.6335L21.4558 20.5145C21.4515 20.4791 21.4467 20.4477 21.4439 20.4296C21.4403 20.4066 21.4396 20.4022 21.4387 20.3965L20.4482 20.5339ZM20.4629 20.6335L19.47 20.7525C19.4668 20.7256 19.465 20.7016 19.4641 20.6813C19.4632 20.6611 19.463 20.6439 19.4631 20.6305C19.4632 20.6172 19.4636 20.6065 19.4639 20.6C19.464 20.5967 19.4641 20.594 19.4642 20.5923C19.4643 20.5914 19.4643 20.5908 19.4643 20.5903C19.4643 20.5899 19.4644 20.5896 19.4644 20.5896C19.4644 20.589 19.4643 20.5907 19.4642 20.5918C19.4642 20.5933 19.464 20.5958 19.4639 20.599C19.4636 20.6051 19.4632 20.6155 19.4629 20.6284C19.4627 20.6414 19.4626 20.6584 19.4632 20.6782C19.4637 20.6982 19.465 20.7219 19.4676 20.7486L20.4629 20.6521L21.4582 20.5556C21.463 20.605 21.463 20.6446 21.4626 20.6666C21.4623 20.6779 21.462 20.6868 21.4618 20.6913C21.4616 20.6951 21.4614 20.699 21.4615 20.6961C21.4616 20.695 21.4619 20.6887 21.4622 20.681C21.4626 20.6729 21.463 20.6607 21.4631 20.6459C21.4633 20.6168 21.4625 20.5707 21.4558 20.5146L20.4629 20.6335ZM20.4629 20.6521L19.4699 20.7705C19.4893 20.9332 19.5 21.0927 19.5 21.2498L20.5 21.2498L21.5 21.2497C21.5 21.0022 21.4832 20.763 21.4559 20.5337L20.4629 20.6521ZM20.5 21.2498H19.5C19.5 23.4589 17.7091 25.2498 15.5 25.2498L15.5 26.2498L15.5 27.2498C18.8137 27.2498 21.5 24.5635 21.5 21.2498H20.5ZM15.5 26.2498V25.2498C13.2909 25.2498 11.5 23.4589 11.5 21.2498H10.5H9.5C9.5 24.5635 12.1863 27.2498 15.5 27.2498V26.2498ZM10.5 21.2498L11.5 21.2498C11.5 21.0896 11.5101 20.9298 11.5291 20.7704L10.5361 20.6521L9.54316 20.5338C9.51544 20.7664 9.50001 21.0053 9.5 21.2497L10.5 21.2498ZM10.5361 20.6521L11.5315 20.7485C11.5341 20.7219 11.5351 20.7002 11.5356 20.6874C11.5359 20.6809 11.5361 20.6755 11.5361 20.6725C11.5362 20.6709 11.5362 20.6696 11.5362 20.6689C11.5362 20.6685 11.5362 20.6682 11.5363 20.668C11.5363 20.6678 11.5363 20.6678 11.5363 20.6678C11.5363 20.6679 11.5362 20.6685 11.5362 20.6694C11.5362 20.6703 11.5361 20.6717 11.5361 20.6735C11.536 20.677 11.5358 20.6826 11.5354 20.6895C11.5347 20.7031 11.5333 20.7252 11.53 20.7525L10.5371 20.6335L9.5442 20.5146C9.54057 20.5449 9.53891 20.5701 9.53805 20.5868C9.53723 20.6027 9.53693 20.6157 9.53688 20.6178C9.53681 20.6205 9.53686 20.6186 9.53688 20.6178C9.53692 20.6163 9.53703 20.6125 9.53723 20.6075C9.53762 20.5978 9.53851 20.5792 9.54079 20.5557L10.5361 20.6521ZM10.5371 20.6335L11.53 20.7526C11.5326 20.7312 11.5341 20.7235 11.5413 20.6714L10.5508 20.5339L9.56027 20.3965C9.55831 20.4107 9.54963 20.4694 9.54422 20.5145L10.5371 20.6335ZM10.5508 20.5339L11.5407 20.6759C11.5452 20.6445 11.5469 20.632 11.5492 20.6173L10.5615 20.4607L9.57386 20.3041C9.56847 20.3381 9.56341 20.3745 9.56091 20.392L10.5508 20.5339ZM10.5615 20.4607L11.5501 20.6115C11.734 19.4058 12.4135 18.2286 13.2539 17.1997C14.0856 16.1815 15.0125 15.3843 15.5746 14.9417L14.9561 14.156L14.3375 13.3703C13.7103 13.8641 12.662 14.7628 11.7049 15.9345C10.7565 17.0957 9.83339 18.6027 9.57296 20.3099L10.5615 20.4607Z" fill="#83868F"/>
</svg>
