<svg width="31" height="30" viewBox="0 0 31 30" fill="none" xmlns="http://www.w3.org/2000/svg">
<path d="M4.08169 16.9445C3.55298 15.9941 3.28862 15.5188 3.28862 15C3.28862 14.4812 3.55297 14.0059 4.08168 13.0555L6.03867 9.5375L8.10685 6.0837C8.6656 5.1506 8.94498 4.68405 9.39431 4.42463C9.84364 4.16521 10.3874 4.15654 11.4748 4.13919L15.5 4.075L19.5252 4.13919C20.6126 4.15654 21.1564 4.16521 21.6057 4.42463C22.055 4.68405 22.3344 5.1506 22.8931 6.0837L24.9613 9.5375L26.9183 13.0555C27.447 14.0059 27.7114 14.4812 27.7114 15C27.7114 15.5188 27.447 15.9941 26.9183 16.9445L24.9613 20.4625L22.8932 23.9163C22.3344 24.8494 22.055 25.3159 21.6057 25.5754C21.1564 25.8348 20.6126 25.8435 19.5252 25.8608L15.5 25.925L11.4748 25.8608C10.3874 25.8435 9.84364 25.8348 9.39431 25.5754C8.94498 25.3159 8.66561 24.8494 8.10685 23.9163L6.03867 20.4625L4.08169 16.9445Z" stroke="#83868F" stroke-width="2"/>
<circle cx="15.5" cy="15" r="3.75" stroke="#83868F" stroke-width="2"/>
</svg>
