<svg width="31" height="30" viewBox="0 0 31 30" fill="none" xmlns="http://www.w3.org/2000/svg">
<path d="M18.3125 5H12.6875C8.71002 5 6.72129 5 5.48564 6.25526C4.25 7.51051 4.25 9.53082 4.25 13.5714V16.4286C4.25 20.4692 4.25 22.4895 5.48564 23.7447C6.72129 25 8.71002 25 12.6875 25H18.3125C22.29 25 24.2787 25 25.5144 23.7447C26.75 22.4895 26.75 20.4692 26.75 16.4286V13.5714C26.75 9.53082 26.75 7.51051 25.5144 6.25526C24.2787 5 22.29 5 18.3125 5Z" stroke="#83868F" stroke-width="2"/>
<path d="M9.25 10H13" stroke="#83868F" stroke-width="2" stroke-linecap="round"/>
<path d="M19.25 18V17C19.25 16.0572 19.25 15.5858 19.5429 15.2929C19.8358 15 20.3072 15 21.25 15H24.75C25.6928 15 26.1642 15 26.4571 15.2929C26.75 15.5858 26.75 16.0572 26.75 17V18C26.75 18.9428 26.75 19.4142 26.4571 19.7071C26.1642 20 25.6928 20 24.75 20H21.25C20.3072 20 19.8358 20 19.5429 19.7071C19.25 19.4142 19.25 18.9428 19.25 18Z" stroke="#83868F" stroke-width="2"/>
</svg>
