<svg width="34" height="34" viewBox="0 0 34 34" fill="none" xmlns="http://www.w3.org/2000/svg">
<path d="M16.9998 3.25C18.5769 3.25 20.0665 3.6621 21.3601 4.38867C20.8867 4.86533 20.4968 5.42452 20.2097 6.04102C19.247 5.53563 18.1539 5.25 16.9998 5.25C13.4768 5.25011 10.5167 7.89901 10.1277 11.4004L9.77124 14.6113C9.68877 15.3536 9.64154 15.7881 9.55249 16.2158C9.40524 16.923 9.17351 17.61 8.86206 18.2617C8.67367 18.6559 8.44756 19.0303 8.06323 19.6709L6.92456 21.5684C6.5043 22.2688 6.25018 22.6975 6.11987 23.0117C6.11783 23.0167 6.11594 23.0216 6.11401 23.0264C6.11959 23.0272 6.12572 23.0294 6.13159 23.0303C6.46801 23.0801 6.96563 23.083 7.78198 23.083H26.2175C27.0338 23.083 27.5315 23.0801 27.8679 23.0303C27.8735 23.0295 27.8792 23.0272 27.8845 23.0264C27.8826 23.0217 27.8816 23.0165 27.8796 23.0117C27.7493 22.6975 27.4952 22.2688 27.075 21.5684L25.9363 19.6709C25.552 19.0304 25.3258 18.6559 25.1375 18.2617C24.826 17.61 24.5943 16.923 24.447 16.2158C24.358 15.7881 24.3107 15.3535 24.2283 14.6113L24.1804 14.1807C24.6045 14.2788 25.0458 14.334 25.4998 14.334C25.7382 14.334 25.9729 14.3169 26.2039 14.2891L26.2156 14.3896C26.3021 15.168 26.3397 15.4947 26.405 15.8086C26.5196 16.3585 26.7 16.8926 26.9421 17.3994C27.0804 17.6886 27.2484 17.9703 27.6511 18.6416L28.7898 20.54C29.1751 21.1822 29.5255 21.7612 29.7263 22.2451C29.9298 22.7357 30.099 23.4063 29.7244 24.0684C29.3494 24.7305 28.6873 24.9308 28.1619 25.0088C27.6435 25.0857 26.9666 25.083 26.2175 25.083H7.78198C7.03292 25.083 6.35594 25.0857 5.83765 25.0088C5.31219 24.9308 4.65004 24.7305 4.27515 24.0684C3.90063 23.4064 4.06975 22.7357 4.27319 22.2451C4.47396 21.7612 4.82441 21.1822 5.20972 20.54L6.34839 18.6416C6.75115 17.9703 6.91916 17.6886 7.05737 17.3994C7.29956 16.8926 7.47995 16.3585 7.59448 15.8086C7.65984 15.4947 7.69745 15.168 7.78394 14.3896L8.14038 11.1797C8.64196 6.66544 12.4577 3.25011 16.9998 3.25ZM23.7126 6.30176C24.8737 7.62991 25.6514 9.30985 25.8591 11.1797L25.8728 11.3057C25.7506 11.3218 25.6264 11.334 25.4998 11.334L25.2107 11.3193C24.6691 11.2644 24.1732 11.0557 23.7654 10.7393C23.5718 9.81616 23.1966 8.96542 22.6804 8.22266C22.7556 7.44891 23.1418 6.76647 23.7126 6.30176Z" fill="#8D8C94"/>
<path d="M12.8948 25.025C13.137 26.3805 13.6705 27.5783 14.4128 28.4326C15.155 29.2869 16.0644 29.75 17 29.75C17.9356 29.75 18.845 29.2869 19.5872 28.4326C20.3295 27.5783 20.863 26.3805 21.1052 25.025" stroke="#8D8C94" stroke-width="2" stroke-linecap="round"/>
<circle cx="25.5001" cy="8.49996" r="3.33333" fill="#8D8C94" stroke="#8D8C94"/>
</svg>
