<svg width="70" height="71" viewBox="0 0 70 71" fill="none" xmlns="http://www.w3.org/2000/svg">
<g filter="url(#filter0_d_25_322)">
<rect x="4.0127" y="0.563965" width="61.9874" height="61.9874" rx="10" fill="#D9D9D9" fill-opacity="0.05" shape-rendering="crispEdges"/>
<rect x="4.5127" y="1.06396" width="60.9874" height="60.9874" rx="9.5" stroke="white" stroke-opacity="0.1" shape-rendering="crispEdges"/>
</g>
<path d="M38.6523 44.6826V36.9326C38.6523 36.3803 38.2045 35.9326 37.6523 35.9326H32.3606C31.8083 35.9326 31.3606 36.3803 31.3606 36.9326V44.6826" stroke="white" stroke-width="2" stroke-linecap="round" stroke-linejoin="round"/>
<path d="M24.7981 30.0992V40.6826C24.7981 42.5682 24.7981 43.511 25.3839 44.0968C25.9697 44.6826 26.9125 44.6826 28.7981 44.6826H41.2148C43.1004 44.6826 44.0432 44.6826 44.629 44.0968C45.2148 43.511 45.2148 42.5682 45.2148 40.6826V30.0992" stroke="white" stroke-width="2"/>
<path d="M24.4193 19.9475C24.6012 19.22 24.6921 18.8562 24.9634 18.6444C25.2346 18.4326 25.6096 18.4326 26.3596 18.4326H43.6531C44.4031 18.4326 44.7781 18.4326 45.0493 18.6444C45.3206 18.8562 45.4115 19.22 45.5934 19.9475L47.5223 27.663C47.7966 28.7603 47.9338 29.3089 47.6602 29.6862C47.6463 29.7055 47.6316 29.7242 47.6164 29.7424C47.3166 30.0993 46.7444 30.0993 45.5998 30.0993C44.0745 30.0993 43.3118 30.0993 42.7725 29.6843C42.7229 29.6461 42.6752 29.6057 42.6294 29.563C42.1314 29.0993 42.0074 28.3557 41.7595 26.8684C41.6897 26.4496 41.6548 26.2402 41.5782 26.233C41.572 26.2324 41.5657 26.2324 41.5595 26.233C41.4829 26.2402 41.448 26.4496 41.3782 26.8684L41.2592 27.5819C41.1258 28.3825 41.0591 28.7828 40.8801 29.0948C40.6475 29.5001 40.2803 29.8112 39.8422 29.974C39.5051 30.0993 39.0993 30.0993 38.2876 30.0993C37.4759 30.0993 37.0701 30.0993 36.733 29.974C36.2949 29.8112 35.9277 29.5001 35.6951 29.0948C35.5161 28.7828 35.4494 28.3825 35.316 27.5819L35.197 26.8684C35.1272 26.4496 35.0923 26.2402 35.0157 26.233C35.0095 26.2324 35.0032 26.2324 34.997 26.233C34.9204 26.2402 34.8855 26.4496 34.8157 26.8684L34.6967 27.5819C34.5633 28.3825 34.4966 28.7828 34.3176 29.0948C34.085 29.5001 33.7178 29.8112 33.2797 29.974C32.9426 30.0993 32.5368 30.0993 31.7251 30.0993C30.9134 30.0993 30.5076 30.0993 30.1705 29.974C29.7324 29.8112 29.3652 29.5001 29.1326 29.0948C28.9536 28.7828 28.8869 28.3825 28.7535 27.5819L28.6345 26.8684C28.5647 26.4496 28.5298 26.2402 28.4532 26.233C28.447 26.2324 28.4407 26.2324 28.4345 26.233C28.3579 26.2402 28.323 26.4496 28.2532 26.8684C28.0053 28.3557 27.8813 29.0993 27.3833 29.563C27.3375 29.6057 27.2898 29.6461 27.2402 29.6843C26.7009 30.0993 25.9382 30.0993 24.4129 30.0993C23.2683 30.0993 22.6961 30.0993 22.3963 29.7424C22.3811 29.7242 22.3664 29.7055 22.3525 29.6862C22.0789 29.3089 22.2161 28.7603 22.4904 27.663L24.4193 19.9475Z" stroke="white" stroke-width="2"/>
<defs>
<filter id="filter0_d_25_322" x="0.0126953" y="0.563965" width="69.9873" height="69.9874" filterUnits="userSpaceOnUse" color-interpolation-filters="sRGB">
<feFlood flood-opacity="0" result="BackgroundImageFix"/>
<feColorMatrix in="SourceAlpha" type="matrix" values="0 0 0 0 0 0 0 0 0 0 0 0 0 0 0 0 0 0 127 0" result="hardAlpha"/>
<feOffset dy="4"/>
<feGaussianBlur stdDeviation="2"/>
<feComposite in2="hardAlpha" operator="out"/>
<feColorMatrix type="matrix" values="0 0 0 0 0 0 0 0 0 0 0 0 0 0 0 0 0 0 0.25 0"/>
<feBlend mode="normal" in2="BackgroundImageFix" result="effect1_dropShadow_25_322"/>
<feBlend mode="normal" in="SourceGraphic" in2="effect1_dropShadow_25_322" result="shape"/>
</filter>
</defs>
</svg>
