<svg width="25" height="25" viewBox="0 0 25 25" fill="none" xmlns="http://www.w3.org/2000/svg">
<circle cx="12.8555" cy="8.25977" r="3.25" stroke="white" stroke-width="1.5" stroke-linecap="round"/>
<path d="M15.9069 9.13477C16.2053 8.61798 16.6967 8.24088 17.2731 8.08643C17.8495 7.93199 18.4637 8.01284 18.9805 8.31121C19.4973 8.60958 19.8744 9.10102 20.0288 9.67742C20.1832 10.2538 20.1024 10.868 19.804 11.3848C19.5057 11.9016 19.0142 12.2787 18.4378 12.4331C17.8614 12.5875 17.2473 12.5067 16.7305 12.2083C16.2137 11.91 15.8366 11.4185 15.6821 10.8421C15.5277 10.2657 15.6085 9.65156 15.9069 9.13477L15.9069 9.13477Z" stroke="white" stroke-width="1.5"/>
<path d="M5.90691 9.13477C6.20528 8.61798 6.69672 8.24088 7.27313 8.08643C7.84953 7.93199 8.46368 8.01284 8.98047 8.31121C9.49726 8.60958 9.87435 9.10102 10.0288 9.67742C10.1832 10.2538 10.1024 10.868 9.80403 11.3848C9.50566 11.9016 9.01422 12.2787 8.43781 12.4331C7.86141 12.5875 7.24726 12.5067 6.73047 12.2083C6.21368 11.91 5.83658 11.4185 5.68214 10.8421C5.52769 10.2657 5.60854 9.65156 5.90691 9.13477L5.90691 9.13477Z" stroke="white" stroke-width="1.5"/>
<path d="M17.855 14.2598V13.5098H17.8549L17.855 14.2598ZM21.5757 17.1641L22.2826 16.9135L22.2825 16.9133L21.5757 17.1641ZM17.7368 18.2598L17.0016 18.4078L17.1228 19.0098H17.7368V18.2598ZM15.6382 14.9727L15.1846 14.3754L14.3177 15.0337L15.2416 15.6093L15.6382 14.9727ZM17.855 14.2598V15.0098C19.66 15.0098 20.4826 16.3258 20.8688 17.4148L21.5757 17.1641L22.2825 16.9133C21.8287 15.6338 20.6401 13.5098 17.855 13.5098V14.2598ZM21.5757 17.1641L20.8688 17.4147C20.8728 17.426 20.8737 17.4328 20.8739 17.4356C20.8741 17.4383 20.8739 17.4394 20.8739 17.4397C20.8738 17.44 20.8736 17.4412 20.8726 17.4434C20.8715 17.4457 20.8694 17.4495 20.8654 17.4545C20.8486 17.4753 20.8025 17.5098 20.7222 17.5098V18.2598V19.0098C21.7313 19.0098 22.6918 18.0678 22.2826 16.9135L21.5757 17.1641ZM20.7222 18.2598V17.5098H17.7368V18.2598V19.0098H20.7222V18.2598ZM17.7368 18.2598L18.4721 18.1117C18.2596 17.0569 17.6746 15.3576 16.0347 14.3361L15.6382 14.9727L15.2416 15.6093C16.3656 16.3094 16.8221 17.5165 17.0016 18.4078L17.7368 18.2598ZM15.6382 14.9727L16.0918 15.5699C16.5206 15.2443 17.0837 15.0098 17.8551 15.0098L17.855 14.2598L17.8549 13.5098C16.7468 13.5099 15.8669 13.8572 15.1846 14.3754L15.6382 14.9727Z" fill="white"/>
<path d="M7.85535 14.2598V13.5098H7.85532L7.85535 14.2598ZM10.0721 14.9727L10.4688 15.6092L11.3926 15.0336L10.5257 14.3753L10.0721 14.9727ZM7.97449 18.2598V19.0098H8.58848L8.70972 18.4079L7.97449 18.2598ZM4.98816 18.2598L4.98808 19.0098H4.98816V18.2598ZM4.13562 17.1641L3.42877 16.9133L3.42876 16.9134L4.13562 17.1641ZM7.85535 14.2598V15.0098C8.6265 15.0098 9.18965 15.2443 9.6186 15.57L10.0721 14.9727L10.5257 14.3753C9.84349 13.8573 8.96358 13.5098 7.85535 13.5098V14.2598ZM10.0721 14.9727L9.67553 14.3361C8.03587 15.3577 7.45162 17.0573 7.23925 18.1117L7.97449 18.2598L8.70972 18.4079C8.8893 17.5163 9.34521 16.3093 10.4688 15.6092L10.0721 14.9727ZM7.97449 18.2598V17.5098H4.98816V18.2598V19.0098H7.97449V18.2598ZM4.98816 18.2598L4.98824 17.5098C4.90796 17.5098 4.86222 17.4754 4.84572 17.4548C4.84178 17.4499 4.83969 17.4461 4.83864 17.4439C4.83764 17.4417 4.8374 17.4406 4.83733 17.4402C4.83729 17.4399 4.83706 17.4387 4.83729 17.4359C4.83753 17.4331 4.83842 17.4262 4.84248 17.4148L4.13562 17.1641L3.42876 16.9134C3.01965 18.0669 3.97795 19.0097 4.98808 19.0098L4.98816 18.2598ZM4.13562 17.1641L4.84247 17.4148C5.22881 16.3256 6.05061 15.0098 7.85537 15.0098L7.85535 14.2598L7.85532 13.5098C5.0702 13.5099 3.88251 15.6341 3.42877 16.9133L4.13562 17.1641Z" fill="white"/>
<path d="M12.8555 14.2598C16.427 14.2598 17.4474 16.8109 17.7389 18.2686C17.8472 18.8102 17.4078 19.2598 16.8555 19.2598H8.85547C8.30318 19.2598 7.86376 18.8102 7.97206 18.2686C8.26357 16.8109 9.28393 14.2598 12.8555 14.2598Z" stroke="white" stroke-width="1.5" stroke-linecap="round"/>
</svg>
