<svg width="62" height="63" viewBox="0 0 62 63" fill="none" xmlns="http://www.w3.org/2000/svg">
<rect x="0.0126953" y="0.319458" width="61.9874" height="61.9874" rx="10" fill="#D9D9D9" fill-opacity="0.05"/>
<rect x="0.512695" y="0.819458" width="60.9874" height="60.9874" rx="9.5" stroke="white" stroke-opacity="0.1"/>
<path d="M22.9514 37.7576L23.7369 42.4707C24.003 44.0671 24.136 44.8652 24.6955 45.3392C25.255 45.8131 26.0642 45.8131 27.6825 45.8131H34.3315C35.9498 45.8131 36.759 45.8131 37.3185 45.3392C37.8779 44.8652 38.011 44.0671 38.277 42.4707L39.0626 37.7576" stroke="white" stroke-width="2" stroke-linecap="round" stroke-linejoin="round"/>
<path d="M33.4238 19.2298C34.2294 17.6187 35.8405 16.8131 37.4516 16.8131" stroke="white" stroke-width="2" stroke-linecap="round"/>
<circle cx="31.0071" cy="21.6465" r="3.22223" stroke="white" stroke-width="2" stroke-linecap="round" stroke-linejoin="round"/>
<path d="M34.229 21.2375C36.3106 22.0311 38.0229 23.5705 39.0415 25.5276C42.338 25.916 44.8948 28.7175 44.895 32.1184C44.8948 35.7846 41.923 38.7581 38.2563 38.7581C37.0443 38.7579 35.9085 38.4292 34.9312 37.8616C33.7438 38.4342 32.4123 38.7581 31.0063 38.7581C29.6001 38.758 28.2682 38.4345 27.0806 37.8616C26.1034 38.4288 24.9681 38.7581 23.7563 38.7581C20.09 38.7577 17.1178 35.7844 17.1177 32.1184C17.1179 28.7183 19.6741 25.9172 22.9692 25.5276C23.988 23.57 25.7022 22.0309 27.7847 21.2375V23.4241C26.343 24.1655 25.1888 25.3891 24.5366 26.8831C24.3808 27.2391 24.0326 27.4735 23.644 27.4827C21.1343 27.5424 19.1178 29.5946 19.1177 32.1184C19.1178 34.6802 21.1949 36.7577 23.7563 36.7581C24.7608 36.7581 25.6892 36.4373 26.4497 35.8938L26.5728 35.8186C26.8701 35.6653 27.2285 35.6697 27.5249 35.8381C28.5524 36.4226 29.7394 36.758 31.0063 36.7581C32.2732 36.7581 33.4602 36.4225 34.4878 35.8381L34.6177 35.7756C34.9294 35.6537 35.2864 35.6954 35.564 35.8938C36.3243 36.4373 37.2519 36.7579 38.2563 36.7581C40.818 36.7581 42.8948 34.6805 42.895 32.1184C42.8948 29.5939 40.8781 27.5415 38.3677 27.4827C37.9791 27.4734 37.6308 27.2392 37.4751 26.8831C36.823 25.3894 35.6699 24.1666 34.229 23.425V21.2375Z" fill="white"/>
</svg>
