<svg width="49" height="49" viewBox="0 0 49 49" fill="none" xmlns="http://www.w3.org/2000/svg">
<path d="M9.04095 27.5969C7.47993 26.8164 6.69934 26.4257 6.69935 25.8077C6.69974 25.19 7.48044 24.8002 9.04095 24.0199L34.0376 11.5206C36.2559 10.4114 37.3658 9.85675 37.8756 10.366C38.3852 10.8756 37.8303 11.9854 36.721 14.204L31.4198 24.8085L19.6054 24.8078C19.0533 24.8078 18.6058 25.2556 18.6055 25.8077C18.6055 26.36 19.0531 26.8076 19.6054 26.8076L31.4198 26.8083L36.7217 37.4121C37.8308 39.6303 38.3848 40.7397 37.8756 41.2494C37.3659 41.7591 36.2567 41.2047 34.0383 40.0955L9.04095 27.5969Z" fill="white" fill-opacity="0.5"/>
</svg>
