<svg width="25" height="25" viewBox="0 0 25 25" fill="none" xmlns="http://www.w3.org/2000/svg">
<path d="M2.78711 12.6641L2.00624 12.0394L1.50648 12.6641L2.00624 13.2888L2.78711 12.6641ZM11.7871 13.6641C12.3394 13.6641 12.7871 13.2163 12.7871 12.6641C12.7871 12.1118 12.3394 11.6641 11.7871 11.6641V12.6641V13.6641ZM6.78711 7.66406L6.00624 7.03937L2.00624 12.0394L2.78711 12.6641L3.56798 13.2888L7.56798 8.28876L6.78711 7.66406ZM2.78711 12.6641L2.00624 13.2888L6.00624 18.2888L6.78711 17.6641L7.56798 17.0394L3.56798 12.0394L2.78711 12.6641ZM2.78711 12.6641V13.6641H11.7871V12.6641V11.6641H2.78711V12.6641Z" fill="#FD0909"/>
<path d="M10.7871 8.796V8.05257C10.7871 6.43423 10.7871 5.62506 11.2611 5.06557C11.735 4.50608 12.5332 4.37305 14.1295 4.107L15.8007 3.82846C19.0438 3.28795 20.6654 3.01769 21.7262 3.91638C22.7871 4.81508 22.7871 6.459 22.7871 9.74683V15.5813C22.7871 18.8691 22.7871 20.513 21.7262 21.4117C20.6654 22.3104 19.0438 22.0402 15.8007 21.4997L14.1295 21.2211C12.5332 20.9551 11.735 20.822 11.2611 20.2626C10.7871 19.7031 10.7871 18.8939 10.7871 17.2756V16.73" stroke="#FD0909" stroke-width="2"/>
</svg>
