<svg width="25" height="25" viewBox="0 0 25 25" fill="none" xmlns="http://www.w3.org/2000/svg">
<circle cx="12.6426" cy="8.23242" r="4" stroke="white" stroke-width="2" stroke-linecap="round"/>
<path d="M12.6424 15.2324C13.0887 15.2324 13.5333 15.2589 13.9725 15.3096C12.9539 15.5421 12.134 16.2916 11.8025 17.2686C10.5076 17.3818 9.28579 17.7551 8.27128 18.3389C7.03921 19.0479 6.21753 20.0045 5.85624 21.0156C5.67045 21.5356 5.0989 21.8067 4.5789 21.6211C4.05891 21.4352 3.78767 20.8628 3.97343 20.3428C4.52378 18.8026 5.71135 17.5044 7.27324 16.6055C8.8359 15.7062 10.7229 15.2324 12.6424 15.2324Z" fill="white"/>
<path d="M18.6426 14.2324L18.6426 22.2324" stroke="white" stroke-width="2.5" stroke-linecap="round"/>
<path d="M22.6426 18.2324L14.6426 18.2324" stroke="white" stroke-width="2.5" stroke-linecap="round"/>
</svg>
